<?xml version="1.0" encoding="UTF-8"?>
<svg id="Layer_1" data-name="Layer 1" xmlns="http://www.w3.org/2000/svg" xmlns:xlink="http://www.w3.org/1999/xlink" viewBox="0 0 950 950">
  <defs>
    <style>
      .cls-1 {
        fill: url(#GradientFill_1);
      }

      .cls-1, .cls-2, .cls-3, .cls-4 {
        fill-rule: evenodd;
      }

      .cls-2 {
        fill: url(#GradientFill_2);
      }

      .cls-3 {
        fill: #ffca08;
      }

      .cls-4 {
        fill: #ec0677;
      }
    </style>
    <linearGradient id="GradientFill_1" data-name="GradientFill 1" x1="141.39" y1="298.29" x2="96.47" y2="460.54" gradientUnits="userSpaceOnUse">
      <stop offset="0" stop-color="#ed1f7b"/>
      <stop offset=".66" stop-color="#f2737f"/>
      <stop offset="1" stop-color="#ffc226"/>
    </linearGradient>
    <linearGradient id="GradientFill_2" data-name="GradientFill 2" x1="272.98" y1="367.41" x2="97.85" y2="611.62" gradientUnits="userSpaceOnUse">
      <stop offset="0" stop-color="#ed1f7b"/>
      <stop offset=".29" stop-color="#f04e5e"/>
      <stop offset="1" stop-color="#ffc226"/>
    </linearGradient>
  </defs>
  <path class="cls-4" d="m379.25,458.52c-12.15,0-31.53,7.34-32.51,19.05-.62,7.39,7.67,11.72,14.48,8.83,5.25-2.23,9.79-8.23,17.09-8.23,8.48,0,15.12,4.86,15.51,12.64.15,3.02-1.78,2.16-4.66,2.15-5.22-.02-15.19-.18-19.48.45-41.39,6.08-32.14,51.63-1.28,51.63,12.12,0,23.13-1.36,34.44-1.43,14.35-.09,14.09-8.3,14.09-18.89v-25.48c0-14.39-1.88-21.76-9.61-29.48-5.92-5.92-16.07-11.24-28.07-11.24h0Zm2.36,69.04c-7.86,0-16.94-1.17-16.92-9.44.02-8.12,9.32-8.93,17.38-8.93,14.32,0,11.89-3.8,11.75,16.44-2.81,2.39-7.82,1.93-12.2,1.93h0Zm227.31-34.94c0-8.54,6.84-14.87,15.68-14.58,11.77.39,17.84,13.76,13.66,14.56l-29.34.03h0Zm.04,17.42h27.89c8.74,0,18.69,1.36,23.11-4.18,4.07-5.09,2.78-17.35.52-23.63-9.66-26.79-50.93-33.46-68.98-7.09-4.26,6.22-5.56,12.33-5.63,21.76-.07,9.61-.63,17.67,2.47,25.39,8.28,20.62,34.93,27.52,56.48,19.4,24.48-9.23,13.08-29.82-1.76-22.05-5.96,3.12-12.2,7.14-21.55,5.34-7.36-1.41-12.61-6.57-12.55-14.94h0Zm-157.02-12.2c0-11.91,2.18-18.24,14.6-18.24,9.07,0,14.18,3.28,14.66,12.56.44,8.49.03,17.41.03,25.5,0,12.17-1.95,23.4,7.83,26.53,6.62,2.12,15.22-1.42,15.22-11.91v-36.8c0-20.93-11.77-34.91-33.03-34.91h-8.96c-17.4,0-33.02,9.1-33.02,26.89v46.23c0,14.68,23.72,15.05,22.81-1.42-.47-9.13-.13-24.66-.13-34.44h0Zm96.31-15.94c6.01-.34,12.96.42,18.76-.14,12.07-1.17,11.76-18.63-.45-19.3-5.92-.33-12.29-.15-18.26-.15-.66-4.88,2.91-21.03-11.47-21.12-13.8-.09-11.48,13.96-11.48,20.68-3.8.97-6.52.39-9.33,2.44-4.92,3.59-5.08,11.76-.25,15.45,3.41,2.6,6,1.27,8.79,2.43,1.74,2.43.79,8.79.79,12.36,0,12.7-1.42,26.09,4.11,35.21,9.26,15.29,22.98,13.99,38.04,14.01,11.48.02,12.96-9.05,10.54-14-3.47-7.1-11.24-5.5-20.46-5.5-10.27,0-9.43-7.21-9.43-16.52,0-8.15-.48-17.89.1-25.85h0Zm140.53-20.24h.2c5.06,0,9.38,3.29,10.94,7.83,1.14.58,2.21.21,3.19-1.22,6.13-8.89,23.37-10.97,29.63-4.16,4.58,5.3,3.25,13.98-5.22,16.01-8.56,1.83-15.79-1.86-22.38,4.16-2.35,2.1-4.2,4.59-4.6,8.6v40c0,6.36-5.2,11.57-11.57,11.57h-.2c-6.36,0-11.57-5.2-11.57-11.57v-59.67c0-6.36,5.2-11.57,11.57-11.57Z"/>
  <path class="cls-3" d="m774.13,509.48c3.6-.48,7.92-.26,11.8-.3,2.99-.03,3.77-.64,3.86,2.3.13,4.39.82,14.15-1.38,15.25-.71.35-25.72,4.25-27.47-6.74-1.68-10.53,9.16-9.96,13.19-10.5h0Zm15.1-16.7c-7.42,1.92-29.96-4.49-44.53,10.07-13.39,13.37-8.64,43.87,25.68,42.14,8.37-.42,17.14-1.01,25.45-1.31,4.89-.18,8.39.11,11.81-1.95,2.78-1.68,4.75-4.27,5.13-8.51.7-7.68.05-18.83.05-26.88,0-16.77,1.15-29.91-14.27-40.46-24.26-16.6-54.95-1.3-55.7,11.66-.48,8.43,8.75,12.11,15.52,8.32,5.74-3.21,9.99-8.8,19.1-7.42,4.57.69,6.65,2.05,9.07,4.64,1.57,1.68,2.86,4.36,3.13,6.78.32,2.87-.44,2.92-.44,2.92h0Zm110.93,16.77c3.65-.5,7.74-.32,11.74-.36,2.61-.02,3.88-.56,4.11,1.88.14,1.5-.02,4.03-.02,5.65,0,3.23,1.09,8.74-1.63,10.02-.89.42-25.31,4.28-27.38-6.79-2.01-10.76,10.86-10.07,13.18-10.39h0Zm15.35-16.58c-19.66,0-33.77-1.1-44.8,9.93-11.08,11.08-8.03,28.98,3.45,36.92,6.33,4.38,12.1,5.61,22.18,5.17,8.28-.36,16.98-.98,25.45-1.32,5.66-.22,16.57.24,17-10.44.35-8.69.02-18.13.02-26.91s.7-18-2.1-25.29c-7.76-20.23-32.44-27.83-54.84-17.95-4.95,2.18-12.59,7.97-12.99,14.45-.52,8.32,8.56,12.03,15.5,8.36,5.61-2.96,9.83-8.9,19.06-7.48,7.01,1.08,13.38,6.16,12.07,14.55h0Zm-65.37,61.01c-1.96,11.52-8.9,18.86-18.73,22.39-5.04,1.81-20.93,4.16-25.57-1.28-4.35-5.1-3.75-16.44,9.8-16.4,7.82.03,11.54-.85,12.18-8.49,1.21-14.36-1.52-74.64.5-82.13,3.14-11.63,22.24-10.69,22.27,3.34.02,9.19.83,75.04-.45,82.57h0Zm-10.91-128.83h-.47c-15.59,0-15.55,22.84.48,22.7,16.24-.14,16.73-22.7,0-22.7Z"/>
  <path class="cls-1" d="m132.3,366.45c-22.31,3.3-41.35,14.89-59.89,28.57-41.29,34.18-76.21-23.12-44.49-50.51,63.42-48.83,129.13-62.69,191.6-22.82,4.82,3.5,14.21,9.16,18.72,13.15l-72.85,35.17c-12.31-3.33-23.06-4.52-33.09-3.56Z"/>
  <path class="cls-2" d="m237.4,334.21c28.33-10,52.7-20.49,82.52-28.79-3.3-4.23-6.6-8.46-9.91-12.69-3.03-4.14-.51-5.4,5.22-4.47,31.37,5.07,62.75,10.14,94.12,15.21,8.19,1.64,9.77,4.7,3.54,12.03-21.58,24.53-43.17,49.07-64.75,73.6-2.57,2.99-5.16,2.42-5.31-3.89-.47-5.19-.94-10.38-1.42-15.57-21.4,5.34-63.77,20.5-63.66,20.45l-59.77,27.08s-38.37,20.5-57.03,31.37c-71.18,41-95.48,108.79-47.77,135.17,42.02,24.31,109.87-3.37,121.01-84.57,2.85-21.85-.79-56.41-16.22-81.97l59.77-27.08c16.05,33.11,25.65,76.51,21.2,122.14-14.91,128.17-140.11,174.5-220.8,129.5-85.58-47.12-74.01-159.17,14.15-227.87,22.35-15.35,45.04-29.46,68.09-42.29l77-37.36h0Z"/>
</svg>