<?xml version="1.0" encoding="UTF-8"?>
<!DOCTYPE svg PUBLIC "-//W3C//DTD SVG 1.1//EN" "http://www.w3.org/Graphics/SVG/1.1/DTD/svg11.dtd">
<!-- Creator: CorelDRAW -->
<svg xmlns="http://www.w3.org/2000/svg" xml:space="preserve" width="210mm" height="297mm" version="1.1" style="shape-rendering:geometricPrecision; text-rendering:geometricPrecision; image-rendering:optimizeQuality; fill-rule:evenodd; clip-rule:evenodd"
viewBox="0 0 21000 29700"
 xmlns:xlink="http://www.w3.org/1999/xlink">
 <defs>
  <style type="text/css">
   <![CDATA[
    .fil0 {fill:#ED3237}
   ]]>
  </style>
 </defs>
 <g id="Layer_x0020_1">
  <metadata id="CorelCorpID_0Corel-Layer"/>
  <g id="J_x0026_T_x0020_Express.cdr">
   <polygon class="fil0" points="8043,13771 9840,13771 8956,16941 10199,16941 11084,13771 12535,13771 12869,13394 11694,13394 11849,13218 13027,13218 13194,13030 11988,13030 12143,12781 13415,12781 13609,12563 8596,12563 "/>
   <polygon class="fil0" points="3402,16984 0,16984 522,16140 2479,16152 3369,12596 4504,12596 3596,16152 "/>
   <path class="fil0" d="M8689 16939l-1104 0 -189 -210c-527,314 -1156,474 -1782,382 -772,-153 -1235,-621 -1170,-1386 103,-534 337,-980 683,-1350 -386,-774 -244,-1305 3,-1786l2668 0 -446 1017c-346,-698 -1440,-522 -1397,411l1306 1446c112,-138 226,-451 338,-806l820 409c-124,376 -266,750 -460,1063l3 3 727 807 0 0zm-1945 -937l-1011 -1051c-1050,761 15,2001 1011,1051z"/>
   <path class="fil0" d="M12997 15282c0,6 0,15 -1,28 -2,12 -3,27 -6,44 -3,15 -6,31 -11,49 -4,18 -9,33 -16,48 -6,13 -13,25 -22,35 -9,9 -20,14 -30,14l-595 0 -82 407 505 0c12,0 21,4 26,12 6,9 9,21 9,36 0,7 -2,16 -2,28 -1,12 -4,27 -7,43 -2,15 -5,32 -9,48 -5,16 -11,31 -17,45 -6,13 -15,25 -22,34 -9,8 -18,12 -28,12l-506 0 -94 470 603 0c10,0 19,4 23,15 5,7 8,21 8,39 0,5 0,14 -2,28 0,13 -3,28 -6,43 -3,16 -6,33 -10,49 -4,17 -9,32 -16,47 -6,13 -14,25 -23,34 -9,7 -18,12 -28,12l-840 0c-13,0 -25,-2 -37,-6 -12,-3 -21,-11 -27,-20 -7,-9 -13,-19 -15,-32 -3,-14 -3,-30 0,-50l291 -1454c7,-37 24,-65 48,-82 22,-16 49,-25 77,-25l829 0c23,0 33,16 33,49l0 0zm953 759l257 730c9,31 15,55 16,74 2,18 -4,33 -16,42 -12,10 -32,16 -58,19 -29,3 -66,3 -115,3 -36,0 -63,0 -84,-1 -21,-2 -36,-5 -47,-9 -12,-5 -20,-9 -24,-17 -6,-6 -9,-15 -14,-25l-203 -607 -428 607c-7,10 -14,19 -23,25 -8,8 -20,12 -35,17 -15,4 -36,7 -59,9 -26,1 -57,1 -96,1 -45,0 -80,0 -106,-3 -25,-3 -43,-9 -50,-18 -8,-9 -8,-24 1,-41 8,-18 22,-42 45,-72l549 -735 -233 -679c-9,-30 -15,-54 -16,-73 -2,-18 4,-31 16,-40 10,-11 30,-17 58,-18 27,-3 66,-5 113,-5 36,0 66,2 87,3 21,2 37,5 49,9 12,5 21,11 26,18 6,8 10,18 13,30l177 544 391 -551c6,-9 14,-18 23,-26 7,-6 17,-12 31,-16 15,-3 33,-6 55,-8 22,-1 52,-3 90,-3 47,0 85,2 111,5 27,1 44,7 53,18 7,9 7,22 0,40 -8,20 -23,43 -44,73l-510 680 0 0zm1875 -398c0,48 -6,98 -16,151 -11,52 -29,104 -53,153 -24,51 -55,99 -94,143 -38,45 -85,85 -140,121 -55,35 -121,63 -194,82 -73,21 -158,30 -256,30l-175 0 -107 534c-2,9 -6,16 -12,24 -7,6 -18,12 -33,16 -15,5 -33,8 -55,9 -22,3 -51,3 -82,3 -33,0 -58,0 -81,-3 -20,-1 -37,-4 -49,-9 -12,-4 -19,-10 -24,-16 -4,-6 -6,-15 -3,-24l302 -1502c7,-40 24,-71 50,-91 26,-21 57,-31 94,-31l366 0c44,0 85,1 119,4 36,3 70,9 104,15 53,11 100,27 142,48 42,22 76,49 106,81 30,32 52,70 67,114 15,44 24,93 24,148l0 0zm-356 37c0,-40 -11,-76 -30,-107 -20,-30 -51,-51 -91,-63 -20,-6 -39,-10 -61,-12 -23,-3 -48,-3 -75,-3l-149 0 -113 567 155 0c49,0 91,-6 125,-18 36,-10 66,-27 92,-45 27,-19 50,-41 67,-67 20,-26 35,-53 47,-82 10,-28 19,-56 24,-86 6,-28 9,-57 9,-84l0 0zm1782 -83c0,56 -8,110 -23,164 -15,55 -38,106 -71,153 -33,50 -76,93 -127,132 -52,38 -116,70 -191,92 42,17 76,49 104,97 29,49 53,115 71,200l64 339c4,19 7,35 10,50 3,15 5,29 5,39 0,7 -3,15 -9,21 -6,6 -15,10 -32,15 -15,4 -34,7 -59,9 -26,1 -58,1 -97,1 -36,0 -66,0 -87,-3 -21,-1 -39,-4 -50,-10 -12,-5 -20,-11 -23,-18 -4,-8 -7,-17 -9,-27l-64 -370c-6,-43 -16,-80 -28,-113 -11,-33 -27,-60 -45,-82 -18,-23 -40,-39 -66,-49 -26,-11 -58,-17 -95,-17l-107 0 -127 637c0,9 -5,16 -12,24 -8,6 -18,12 -31,16 -15,5 -33,8 -56,9 -22,3 -50,3 -83,3 -33,0 -58,0 -79,-3 -23,-1 -39,-4 -51,-9 -12,-4 -19,-10 -24,-16 -4,-6 -6,-15 -3,-24l305 -1517c7,-37 22,-65 44,-82 24,-16 52,-25 84,-25l447 0c79,0 149,7 213,22 63,15 117,38 162,67 46,30 80,69 104,114 24,46 36,100 36,161zm-364 64c0,-24 -5,-46 -14,-67 -7,-21 -21,-39 -38,-55 -18,-15 -42,-26 -70,-35 -30,-9 -65,-12 -105,-12l-192 0 -96 475 163 0c64,0 119,-9 164,-27 45,-20 80,-43 109,-73 27,-29 47,-61 59,-97 14,-36 20,-72 20,-109zm1745 -379c0,6 0,15 -2,28 -1,12 -4,27 -6,44 -3,15 -6,31 -10,49 -5,18 -11,33 -17,48 -6,13 -15,25 -23,35 -9,9 -18,14 -29,14l-595 0 -82 407 506 0c12,0 21,4 25,12 6,9 8,21 8,36 0,7 0,16 -2,28 -1,12 -3,27 -6,43 -1,15 -6,32 -10,48 -5,16 -9,31 -17,45 -6,13 -13,25 -22,34 -9,8 -18,12 -28,12l-506 0 -94 470 604 0c10,0 18,4 22,15 6,7 9,21 9,39 0,5 -1,14 -1,28 -2,13 -3,28 -6,43 -3,16 -6,33 -11,49 -4,17 -10,32 -16,47 -6,13 -13,25 -22,34 -9,7 -18,12 -30,12l-838 0c-14,0 -27,-2 -38,-6 -12,-3 -21,-11 -28,-20 -7,-9 -12,-19 -15,-32 -3,-14 -1,-30 2,-50l290 -1454c8,-37 23,-65 47,-82 24,-16 50,-25 79,-25l827 0c23,0 35,16 35,49l0 0zm1141 79c0,8 -2,18 -3,31 -2,12 -3,27 -6,42 -2,15 -6,32 -9,48 -5,15 -9,30 -15,43 -6,14 -12,24 -20,33 -7,9 -15,13 -22,13 -12,0 -27,-6 -45,-16 -18,-10 -40,-22 -67,-36 -27,-12 -56,-24 -92,-34 -35,-12 -75,-16 -120,-16 -46,0 -85,6 -117,19 -32,12 -59,30 -79,51 -21,21 -36,44 -45,71 -11,26 -15,52 -15,79 0,30 7,58 22,82 17,24 36,45 63,66 25,19 55,39 88,58 33,19 67,39 101,60 33,19 67,43 100,67 33,25 63,52 90,85 25,33 46,68 61,110 15,42 24,91 24,145 0,80 -17,155 -49,225 -33,69 -80,128 -139,181 -61,50 -133,91 -218,119 -85,30 -179,45 -282,45 -56,0 -107,-5 -155,-15 -46,-8 -89,-20 -125,-33 -36,-12 -67,-25 -91,-40 -26,-15 -45,-29 -57,-41 -12,-13 -18,-32 -18,-58 0,-7 2,-18 3,-31 2,-15 5,-30 8,-45 3,-16 6,-33 10,-49 5,-17 9,-33 15,-46 6,-14 13,-26 21,-35 7,-7 15,-12 22,-12 15,0 33,6 53,20 20,13 46,28 76,45 29,14 65,31 107,44 40,14 89,21 148,21 50,0 95,-7 134,-19 39,-14 70,-32 95,-54 27,-22 47,-48 60,-77 13,-29 19,-62 19,-96 0,-33 -7,-61 -22,-83 -16,-26 -36,-47 -61,-68 -26,-20 -55,-40 -87,-58 -32,-18 -65,-35 -98,-56 -34,-21 -67,-44 -99,-67 -32,-24 -61,-53 -86,-85 -25,-33 -46,-69 -61,-112 -17,-42 -24,-91 -24,-146 0,-78 15,-150 46,-215 31,-64 75,-121 128,-167 56,-48 121,-84 197,-111 76,-25 161,-38 252,-38 44,0 85,3 124,9 39,7 75,14 106,25 31,9 60,21 82,33 22,12 37,22 46,30 9,8 15,17 20,25 3,10 6,21 6,34l0 0zm1227 0c0,8 0,18 -1,31 -2,12 -3,27 -6,42 -3,15 -6,32 -11,48 -3,15 -9,30 -13,43 -6,14 -14,24 -20,33 -7,9 -15,13 -22,13 -12,0 -27,-6 -46,-16 -18,-10 -41,-22 -66,-36 -27,-12 -57,-24 -92,-34 -36,-12 -75,-16 -120,-16 -46,0 -86,6 -118,19 -32,12 -58,30 -79,51 -20,21 -35,44 -46,71 -9,26 -15,52 -15,79 0,30 9,58 24,82 15,24 36,45 63,66 25,19 55,39 88,58 33,19 67,39 100,60 34,19 68,43 101,67 33,25 63,52 88,85 27,33 48,68 63,110 15,42 24,91 24,145 0,80 -17,155 -50,225 -32,69 -79,128 -138,181 -61,50 -133,91 -218,119 -85,30 -179,45 -283,45 -56,0 -106,-5 -154,-15 -48,-8 -90,-20 -125,-33 -36,-12 -67,-25 -93,-40 -24,-15 -43,-29 -55,-41 -12,-13 -18,-32 -18,-58 0,-7 2,-18 3,-31 2,-15 5,-30 8,-45 3,-16 6,-33 10,-49 5,-17 9,-33 15,-46 6,-14 13,-26 19,-35 8,-7 15,-12 24,-12 15,0 32,6 52,20 21,13 45,28 76,45 30,14 66,31 108,44 40,14 89,21 147,21 51,0 96,-7 135,-19 37,-14 70,-32 95,-54 27,-22 46,-48 58,-77 15,-29 21,-62 21,-96 0,-33 -7,-61 -24,-83 -15,-26 -34,-47 -61,-68 -24,-20 -53,-40 -85,-58 -33,-18 -65,-35 -100,-56 -33,-21 -65,-44 -98,-67 -31,-24 -61,-53 -85,-85 -27,-33 -46,-69 -61,-112 -17,-42 -24,-91 -24,-146 0,-78 15,-150 46,-215 31,-64 73,-121 128,-167 55,-48 121,-84 197,-111 76,-25 161,-38 252,-38 43,0 85,3 124,9 39,7 73,14 106,25 31,9 60,21 82,33 22,12 37,22 46,30 9,8 15,17 20,25 3,10 4,21 4,34l0 0z"/>
  </g>
 </g>
</svg>
