<?xml version="1.0" encoding="UTF-8"?>
<!DOCTYPE svg PUBLIC "-//W3C//DTD SVG 1.1//EN" "http://www.w3.org/Graphics/SVG/1.1/DTD/svg11.dtd">
<!-- Creator: CorelDRAW -->
<svg xmlns="http://www.w3.org/2000/svg" xml:space="preserve" width="210mm" height="297mm" version="1.1" style="shape-rendering:geometricPrecision; text-rendering:geometricPrecision; image-rendering:optimizeQuality; fill-rule:evenodd; clip-rule:evenodd"
viewBox="0 0 21000 29700"
 xmlns:xlink="http://www.w3.org/1999/xlink">
 <defs>
  <style type="text/css">
   <![CDATA[
    .fil1 {fill:#DF2128}
    .fil0 {fill:#25387B}
    .fil2 {fill:#25387C;fill-rule:nonzero}
    .fil3 {fill:#25387B;fill-rule:nonzero}
   ]]>
  </style>
 </defs>
 <g id="Layer_x0020_1">
  <metadata id="CorelCorpID_0Corel-Layer"/>
  <g id="JNE_x0020__x0020_Express.cdr">
   <polygon class="fil0" points="13825,16764 15147,10464 20083,10464 19753,12039 17284,12039 17119,12827 19219,12827 18889,14402 16789,14402 16624,15189 19093,15189 18762,16764 "/>
   <path class="fil1" d="M0 16764c4390,-2100 10332,-3439 15751,-3937 1464,-135 2915,-210 4934,-210 79,0 210,-27 315,-53l-407 1943c-23,105 -197,157 -328,157 -12381,0 -19792,2100 -19792,2100l-473 0z"/>
   <polygon class="fil0" points="6648,16764 7969,10464 10332,10464 11737,13325 12337,10464 14700,10464 13379,16764 11016,16764 9633,13798 9011,16764 "/>
   <path class="fil0" d="M4390 14139l770 -3675 2363 0 -924 4410c-287,1365 -1349,1890 -2759,1890l-1740 0 396 -1890 788 0c577,0 996,-210 1106,-735z"/>
   <polygon class="fil2" points="11965,18856 12015,18521 12540,18521 12588,18167 12063,18167 12099,17902 12642,17902 12689,17549 11846,17549 11622,19209 12505,19209 12554,18856 "/>
   <path class="fil2" d="M13823 17549l-366 0 -173 302c-26,47 -57,102 -91,166 -27,-86 -42,-133 -45,-143l-109 -325 -313 0 265 816 -476 844 374 0 153 -267c35,-62 64,-114 86,-156 13,44 29,95 48,155l86 268 332 0 -263 -784 492 -876z"/>
   <path class="fil2" d="M14667 17988c0,-91 -14,-171 -41,-238 -28,-70 -68,-122 -119,-154 -50,-31 -116,-47 -198,-47l-452 0 -224 1660 300 0 81 -598 94 0c94,0 157,-4 193,-12 62,-13 113,-33 151,-60 38,-26 73,-65 105,-115 32,-49 57,-112 79,-193 20,-78 31,-160 31,-243zm-557 -90l0 0 110 0c87,0 106,10 108,11 11,6 20,16 26,32 9,18 13,43 13,74 0,50 -10,96 -28,137 -17,38 -40,65 -68,82 -17,9 -65,26 -198,26l-12 0 49 -362z"/>
   <path class="fil2" d="M15464 18627c-15,-39 -31,-73 -47,-102 87,-31 155,-86 202,-166 56,-93 84,-212 84,-353 0,-99 -14,-185 -43,-256 -31,-75 -72,-129 -124,-158 -51,-29 -117,-43 -204,-43l-489 0 -225 1660 301 0 88 -649 45 0c49,0 66,11 70,16 19,20 48,69 81,186 52,185 87,323 105,411l7 36 320 0 -14 -57c-58,-224 -110,-401 -157,-525zm-369 -725l0 0 190 0c72,0 88,13 88,13 20,20 31,52 31,96 0,41 -9,82 -27,120 -17,36 -39,61 -67,77 -17,9 -65,25 -201,25l-58 0 44 -331z"/>
   <polygon class="fil3" points="16608,18521 16656,18167 16131,18167 16167,17902 16710,17902 16757,17549 15914,17549 15690,19209 16573,19209 16622,18856 16033,18856 16083,18521 "/>
   <path class="fil2" d="M17237 17869c45,0 75,13 97,42 24,32 39,82 43,148l3 46 290 -21 -2 -44c-7,-152 -46,-277 -117,-370 -74,-98 -179,-148 -312,-148 -132,0 -235,50 -306,150 -66,94 -100,214 -100,355 0,81 11,153 33,214 23,62 56,114 97,154 38,38 97,83 178,138 97,65 125,93 134,104 18,24 27,54 27,90 0,43 -11,79 -35,108 -22,27 -58,40 -112,40 -86,0 -115,-34 -129,-60 -9,-15 -24,-59 -27,-177l-1 -48 -288 23 -1 42c-1,109 12,207 39,293 29,89 81,161 152,212 72,50 157,76 253,76 141,0 253,-56 333,-166 76,-106 114,-234 114,-382 0,-120 -26,-221 -78,-300 -36,-54 -113,-120 -236,-202 -90,-61 -125,-95 -139,-113 -16,-21 -24,-49 -24,-84 0,-37 9,-67 27,-90 16,-20 45,-30 87,-30z"/>
   <path class="fil2" d="M18263 18186c-91,-61 -126,-95 -140,-113 -16,-21 -24,-49 -24,-84 0,-37 9,-67 27,-90 16,-20 45,-30 88,-30 44,0 75,13 96,42 24,32 39,82 43,148l3 46 290 -21 -2 -44c-7,-152 -46,-277 -116,-370 -74,-98 -180,-148 -313,-148 -132,0 -235,50 -305,150 -67,94 -101,214 -101,355 0,81 11,153 34,214 23,62 55,114 96,154 38,38 97,83 178,138 97,65 125,93 134,104 19,24 27,54 27,90 0,43 -11,79 -35,108 -21,27 -58,40 -112,40 -86,0 -115,-34 -129,-60 -8,-15 -23,-59 -27,-177l-1 -48 -288 23 0 42c-2,109 11,207 39,293 29,89 80,161 152,212 71,50 156,76 252,76 142,0 253,-56 333,-166 76,-106 114,-234 114,-382 0,-120 -26,-221 -78,-300 -36,-54 -113,-120 -235,-202z"/>
  </g>
 </g>
</svg>
