<?xml version="1.0" encoding="UTF-8"?>
<!DOCTYPE svg PUBLIC "-//W3C//DTD SVG 1.1//EN" "http://www.w3.org/Graphics/SVG/1.1/DTD/svg11.dtd">
<!-- Creator: CorelDRAW -->
<svg xmlns="http://www.w3.org/2000/svg" xml:space="preserve" width="210mm" height="297mm" version="1.1" style="shape-rendering:geometricPrecision; text-rendering:geometricPrecision; image-rendering:optimizeQuality; fill-rule:evenodd; clip-rule:evenodd"
viewBox="0 0 21000 29700"
 xmlns:xlink="http://www.w3.org/1999/xlink">
 <defs>
  <style type="text/css">
   <![CDATA[
    .fil2 {fill:#70161E}
    .fil1 {fill:#921D26}
    .fil9 {fill:#999999}
    .fil4 {fill:#A11F24}
    .fil7 {fill:#B3B3B3}
    .fil0 {fill:#CAC9C9}
    .fil3 {fill:#D5232B}
    .fil6 {fill:#E6E6E6}
    .fil8 {fill:white}
    .fil5 {fill:white}
   ]]>
  </style>
 </defs>
 <g id="Layer_x0020_1">
  <metadata id="CorelCorpID_0Corel-Layer"/>
  <g id="SiCepat_x0020_Express.cdr">
   <path class="fil0" d="M1906 17334c1045,0 1892,81 1892,180 0,99 -847,179 -1892,179 -1044,0 -1891,-80 -1891,-179 0,-99 847,-180 1891,-180z"/>
   <path class="fil1" d="M1803 12023l3580 1520c103,44 152,164 108,267l-1520 3580c-44,103 -164,152 -267,108l-3580 -1520c-103,-43 -152,-164 -108,-267l1520 -3580c44,-103 164,-151 267,-108z"/>
   <path class="fil2" d="M5294 13734c7,19 8,41 -1,61l-1470 3464c-17,40 -64,59 -104,41l-3463 -1470c-20,-8 -35,-24 -43,-43l5081 -2053z"/>
   <path class="fil3" d="M1805 12338l3349 1422c21,9 30,32 22,53l-1422 3349c-8,20 -32,30 -53,21l-3348 -1422c-21,-8 -30,-32 -22,-52l1422 -3349c8,-21 32,-30 52,-22z"/>
   <path class="fil4" d="M5176 13782c4,10 4,21 0,31l-1422 3349c-8,20 -32,30 -53,21l-3348 -1422c-11,-4 -18,-12 -22,-22l4845 -1957z"/>
   <polygon class="fil5" points="4561,13882 2483,14929 2276,14001 "/>
   <polygon class="fil6" points="998,15678 3076,14630 3282,15559 "/>
   <polygon class="fil7" points="2483,14929 3076,14630 3120,14827 2483,14929 "/>
   <path class="fil3" d="M8246 13544l0 634 -147 0c0,0 -250,-37 -250,73 0,110 110,146 262,268 153,122 391,402 391,725 0,323 -214,738 -884,738 -671,0 -616,-73 -616,-73l0 -713c0,0 226,73 433,73 207,0 244,-67 244,-134 0,-67 -701,-494 -701,-920 0,-169 42,-750 804,-750 300,5 464,79 464,79z"/>
   <polygon class="fil3" points="8746,13465 9520,13465 9520,15982 8746,15982 "/>
   <polygon class="fil3" points="12909,15342 13633,15342 13633,15982 12909,15982 12184,15982 12184,13465 12909,13465 13633,13465 13633,14105 12909,14105 12909,14403 13543,14403 13543,15043 12909,15043 "/>
   <path class="fil3" d="M13964 13465l30 0 697 0 229 0c535,0 972,437 972,972l0 0c0,534 -391,972 -926,972l-229 0 0 573 -773 0 0 -2517zm773 670l0 603 43 0c166,0 302,-135 302,-301l0 0c0,-166 -136,-302 -302,-302l-43 0z"/>
   <path class="fil3" d="M11135 13461c333,0 636,130 861,341l-442 564c-101,-119 -251,-194 -419,-194 -303,0 -549,245 -549,548 0,303 246,549 549,549 168,0 318,-76 419,-194l442 563c-225,211 -528,341 -861,341 -695,0 -1259,-564 -1259,-1259 0,-695 564,-1259 1259,-1259z"/>
   <polygon class="fil3" points="16930,13465 18251,15982 15610,15982 "/>
   <polygon class="fil6" points="16612,15982 16105,15982 16951,14692 17566,15363 "/>
   <polygon class="fil7" points="16602,15224 16951,14692 17081,14834 16602,15224 "/>
   <polygon class="fil8" points="17117,13819 17297,14163 16602,15224 16224,14812 16552,14186 "/>
   <polygon class="fil3" points="18523,13465 19297,13465 19757,13465 19757,14129 19297,14129 19297,15982 18523,15982 18523,14129 18063,14129 18063,13465 "/>
   <path class="fil9" d="M14012 16561l18 -125 -705 0 -19 125 142 0 258 0 306 0zm-753 307l-85 568 726 0 19 -124 -584 0 48 -323 503 0 18 -121 -183 0 -320 0 -142 0zm1564 32l516 -464 -186 0 -612 553 83 -553 -143 0 -151 1000 142 0 39 -260 211 -188 326 448 160 0 -387 -533 2 -3zm1020 547c249,0 417,-117 408,-311 -15,-304 -523,-204 -533,-414 -5,-106 96,-176 260,-176 101,0 198,27 275,80l51 -117c-84,-54 -202,-84 -325,-84 -244,0 -410,118 -400,310 15,320 523,213 533,421 5,109 -101,170 -262,170 -124,0 -251,-44 -330,-114l-57 114c76,69 227,121 380,121zm1300 -1011l-372 0 -151 1000 143 0 45 -303 267 0c289,0 462,-148 449,-404 -9,-186 -148,-293 -381,-293zm-71 573l-244 0 68 -448 240 0c151,0 240,61 246,181 8,176 -106,267 -310,267zm1671 -280c-9,-186 -149,-293 -383,-293l-373 0 -151 1000 144 0 46 -306 267 0 27 0 189 306 151 0 -198 -326c186,-48 291,-182 281,-381zm-452 280l-247 0 68 -448 241 0c153,0 242,61 248,181 8,176 -106,267 -310,267zm1621 -448l18 -125 -705 0 -19 125 142 0 564 0zm-752 307l-86 568 727 0 18 -124 -584 0 48 -323 503 0 18 -121 -502 0 -142 0zm1379 579c248,0 417,-117 407,-311 -15,-304 -522,-204 -533,-414 -5,-106 96,-176 260,-176 102,0 199,27 276,80l51 -117c-84,-54 -203,-84 -325,-84 -245,0 -410,118 -401,310 16,320 523,213 533,421 6,109 -100,170 -261,170 -125,0 -251,-44 -330,-114l-57 114c76,69 227,121 380,121z"/>
  </g>
 </g>
</svg>
